<svg width="189" height="55" viewBox="0 0 189 55" fill="none" xmlns="http://www.w3.org/2000/svg">
<g filter="url(#filter0_dd_1_1435)">
<path d="M67.704 6.848C68.92 6.848 69.9707 7.07733 70.856 7.536C71.752 7.984 72.4347 8.62933 72.904 9.472C73.384 10.3147 73.624 11.3067 73.624 12.448C73.624 13.5893 73.384 14.5813 72.904 15.424C72.4347 16.256 71.752 16.896 70.856 17.344C69.9707 17.7813 68.92 18 67.704 18H64.232V6.848H67.704ZM67.704 16.8C69.144 16.8 70.2427 16.4213 71 15.664C71.7573 14.896 72.136 13.824 72.136 12.448C72.136 11.0613 71.752 9.97867 70.984 9.2C70.2267 8.42133 69.1333 8.032 67.704 8.032H65.688V16.8H67.704ZM79.3685 18.144C78.5472 18.144 77.8005 17.9573 77.1285 17.584C76.4672 17.2107 75.9445 16.6827 75.5605 16C75.1872 15.3067 75.0005 14.5067 75.0005 13.6C75.0005 12.704 75.1925 11.9147 75.5765 11.232C75.9712 10.5387 76.5045 10.0107 77.1765 9.648C77.8485 9.27467 78.6005 9.088 79.4325 9.088C80.2645 9.088 81.0165 9.27467 81.6885 9.648C82.3605 10.0107 82.8885 10.5333 83.2725 11.216C83.6672 11.8987 83.8645 12.6933 83.8645 13.6C83.8645 14.5067 83.6618 15.3067 83.2565 16C82.8618 16.6827 82.3232 17.2107 81.6405 17.584C80.9578 17.9573 80.2005 18.144 79.3685 18.144ZM79.3685 16.864C79.8912 16.864 80.3818 16.7413 80.8405 16.496C81.2992 16.2507 81.6672 15.8827 81.9445 15.392C82.2325 14.9013 82.3765 14.304 82.3765 13.6C82.3765 12.896 82.2378 12.2987 81.9605 11.808C81.6832 11.3173 81.3205 10.9547 80.8725 10.72C80.4245 10.4747 79.9392 10.352 79.4165 10.352C78.8832 10.352 78.3925 10.4747 77.9445 10.72C77.5072 10.9547 77.1552 11.3173 76.8885 11.808C76.6218 12.2987 76.4885 12.896 76.4885 13.6C76.4885 14.3147 76.6165 14.9173 76.8725 15.408C77.1392 15.8987 77.4912 16.2667 77.9285 16.512C78.3658 16.7467 78.8458 16.864 79.3685 16.864ZM97.4589 9.232L94.7229 18H93.2189L91.1069 11.04L88.9949 18H87.4909L84.7389 9.232H86.2269L88.2429 16.592L90.4189 9.232H91.9069L94.0349 16.608L96.0189 9.232H97.4589ZM103.176 9.072C104.243 9.072 105.107 9.39733 105.768 10.048C106.429 10.688 106.76 11.616 106.76 12.832V18H105.32V13.04C105.32 12.1653 105.101 11.4987 104.664 11.04C104.227 10.5707 103.629 10.336 102.872 10.336C102.104 10.336 101.491 10.576 101.032 11.056C100.584 11.536 100.36 12.2347 100.36 13.152V18H98.9039V9.232H100.36V10.48C100.648 10.032 101.037 9.68533 101.528 9.44C102.029 9.19467 102.579 9.072 103.176 9.072ZM110.594 6.16V18H109.138V6.16H110.594ZM116.9 18.144C116.078 18.144 115.332 17.9573 114.66 17.584C113.998 17.2107 113.476 16.6827 113.092 16C112.718 15.3067 112.532 14.5067 112.532 13.6C112.532 12.704 112.724 11.9147 113.108 11.232C113.502 10.5387 114.036 10.0107 114.708 9.648C115.38 9.27467 116.132 9.088 116.964 9.088C117.796 9.088 118.548 9.27467 119.22 9.648C119.892 10.0107 120.42 10.5333 120.804 11.216C121.198 11.8987 121.396 12.6933 121.396 13.6C121.396 14.5067 121.193 15.3067 120.788 16C120.393 16.6827 119.854 17.2107 119.172 17.584C118.489 17.9573 117.732 18.144 116.9 18.144ZM116.9 16.864C117.422 16.864 117.913 16.7413 118.372 16.496C118.83 16.2507 119.198 15.8827 119.476 15.392C119.764 14.9013 119.908 14.304 119.908 13.6C119.908 12.896 119.769 12.2987 119.492 11.808C119.214 11.3173 118.852 10.9547 118.404 10.72C117.956 10.4747 117.47 10.352 116.948 10.352C116.414 10.352 115.924 10.4747 115.476 10.72C115.038 10.9547 114.686 11.3173 114.42 11.808C114.153 12.2987 114.02 12.896 114.02 13.6C114.02 14.3147 114.148 14.9173 114.404 15.408C114.67 15.8987 115.022 16.2667 115.46 16.512C115.897 16.7467 116.377 16.864 116.9 16.864ZM122.766 13.584C122.766 12.688 122.947 11.904 123.31 11.232C123.673 10.5493 124.169 10.0213 124.798 9.648C125.438 9.27467 126.147 9.088 126.926 9.088C127.694 9.088 128.361 9.25333 128.926 9.584C129.491 9.91467 129.913 10.3307 130.19 10.832V9.232H131.662V18H130.19V16.368C129.902 16.88 129.47 17.3067 128.894 17.648C128.329 17.9787 127.667 18.144 126.91 18.144C126.131 18.144 125.427 17.952 124.798 17.568C124.169 17.184 123.673 16.6453 123.31 15.952C122.947 15.2587 122.766 14.4693 122.766 13.584ZM130.19 13.6C130.19 12.9387 130.057 12.3627 129.79 11.872C129.523 11.3813 129.161 11.008 128.702 10.752C128.254 10.4853 127.758 10.352 127.214 10.352C126.67 10.352 126.174 10.48 125.726 10.736C125.278 10.992 124.921 11.3653 124.654 11.856C124.387 12.3467 124.254 12.9227 124.254 13.584C124.254 14.256 124.387 14.8427 124.654 15.344C124.921 15.8347 125.278 16.2133 125.726 16.48C126.174 16.736 126.67 16.864 127.214 16.864C127.758 16.864 128.254 16.736 128.702 16.48C129.161 16.2133 129.523 15.8347 129.79 15.344C130.057 14.8427 130.19 14.2613 130.19 13.6ZM133.579 13.584C133.579 12.688 133.76 11.904 134.123 11.232C134.485 10.5493 134.981 10.0213 135.611 9.648C136.251 9.27467 136.965 9.088 137.755 9.088C138.437 9.088 139.072 9.248 139.659 9.568C140.245 9.87733 140.693 10.288 141.003 10.8V6.16H142.475V18H141.003V16.352C140.715 16.8747 140.288 17.3067 139.723 17.648C139.157 17.9787 138.496 18.144 137.739 18.144C136.96 18.144 136.251 17.952 135.611 17.568C134.981 17.184 134.485 16.6453 134.123 15.952C133.76 15.2587 133.579 14.4693 133.579 13.584ZM141.003 13.6C141.003 12.9387 140.869 12.3627 140.603 11.872C140.336 11.3813 139.973 11.008 139.515 10.752C139.067 10.4853 138.571 10.352 138.027 10.352C137.483 10.352 136.987 10.48 136.539 10.736C136.091 10.992 135.733 11.3653 135.467 11.856C135.2 12.3467 135.067 12.9227 135.067 13.584C135.067 14.256 135.2 14.8427 135.467 15.344C135.733 15.8347 136.091 16.2133 136.539 16.48C136.987 16.736 137.483 16.864 138.027 16.864C138.571 16.864 139.067 16.736 139.515 16.48C139.973 16.2133 140.336 15.8347 140.603 15.344C140.869 14.8427 141.003 14.2613 141.003 13.6ZM152.769 10.432H150.929V18H149.473V10.432H148.337V9.232H149.473V8.608C149.473 7.62667 149.723 6.912 150.225 6.464C150.737 6.00533 151.553 5.776 152.673 5.776V6.992C152.033 6.992 151.579 7.12 151.313 7.376C151.057 7.62133 150.929 8.032 150.929 8.608V9.232H152.769V10.432ZM155.922 10.656C156.178 10.1547 156.541 9.76533 157.01 9.488C157.49 9.21067 158.072 9.072 158.754 9.072V10.576H158.37C156.738 10.576 155.922 11.4613 155.922 13.232V18H154.466V9.232H155.922V10.656ZM164.259 18.144C163.438 18.144 162.691 17.9573 162.019 17.584C161.358 17.2107 160.835 16.6827 160.451 16C160.078 15.3067 159.891 14.5067 159.891 13.6C159.891 12.704 160.083 11.9147 160.467 11.232C160.862 10.5387 161.395 10.0107 162.067 9.648C162.739 9.27467 163.491 9.088 164.323 9.088C165.155 9.088 165.907 9.27467 166.579 9.648C167.251 10.0107 167.779 10.5333 168.163 11.216C168.558 11.8987 168.755 12.6933 168.755 13.6C168.755 14.5067 168.552 15.3067 168.147 16C167.752 16.6827 167.214 17.2107 166.531 17.584C165.848 17.9573 165.091 18.144 164.259 18.144ZM164.259 16.864C164.782 16.864 165.272 16.7413 165.731 16.496C166.19 16.2507 166.558 15.8827 166.835 15.392C167.123 14.9013 167.267 14.304 167.267 13.6C167.267 12.896 167.128 12.2987 166.851 11.808C166.574 11.3173 166.211 10.9547 165.763 10.72C165.315 10.4747 164.83 10.352 164.307 10.352C163.774 10.352 163.283 10.4747 162.835 10.72C162.398 10.9547 162.046 11.3173 161.779 11.808C161.512 12.2987 161.379 12.896 161.379 13.6C161.379 14.3147 161.507 14.9173 161.763 15.408C162.03 15.8987 162.382 16.2667 162.819 16.512C163.256 16.7467 163.736 16.864 164.259 16.864ZM181.214 9.072C181.896 9.072 182.504 9.216 183.038 9.504C183.571 9.78133 183.992 10.2027 184.302 10.768C184.611 11.3333 184.766 12.0213 184.766 12.832V18H183.326V13.04C183.326 12.1653 183.107 11.4987 182.67 11.04C182.243 10.5707 181.662 10.336 180.926 10.336C180.168 10.336 179.566 10.5813 179.118 11.072C178.67 11.552 178.446 12.2507 178.446 13.168V18H177.006V13.04C177.006 12.1653 176.787 11.4987 176.35 11.04C175.923 10.5707 175.342 10.336 174.606 10.336C173.848 10.336 173.246 10.5813 172.798 11.072C172.35 11.552 172.126 12.2507 172.126 13.168V18H170.67V9.232H172.126V10.496C172.414 10.0373 172.798 9.68533 173.278 9.44C173.768 9.19467 174.307 9.072 174.894 9.072C175.63 9.072 176.28 9.23733 176.846 9.568C177.411 9.89867 177.832 10.384 178.11 11.024C178.355 10.4053 178.76 9.92533 179.326 9.584C179.891 9.24267 180.52 9.072 181.214 9.072Z" fill="#515151"/>
<path d="M70.904 39.728H66.248L65.448 42H63.544L67.528 30.864H69.64L73.624 42H71.704L70.904 39.728ZM70.392 38.24L68.584 33.072L66.76 38.24H70.392ZM77.1803 34.48C77.4896 34.0747 77.9109 33.7333 78.4443 33.456C78.9776 33.1787 79.5803 33.04 80.2523 33.04C81.0203 33.04 81.7189 33.232 82.3483 33.616C82.9883 33.9893 83.4896 34.5173 83.8523 35.2C84.2149 35.8827 84.3963 36.6667 84.3963 37.552C84.3963 38.4373 84.2149 39.232 83.8523 39.936C83.4896 40.6293 82.9883 41.1733 82.3483 41.568C81.7189 41.952 81.0203 42.144 80.2523 42.144C79.5803 42.144 78.9829 42.0107 78.4603 41.744C77.9376 41.4667 77.5109 41.1253 77.1803 40.72V46.192H75.3563V33.184H77.1803V34.48ZM82.5403 37.552C82.5403 36.944 82.4123 36.4213 82.1562 35.984C81.9109 35.536 81.5803 35.2 81.1643 34.976C80.7589 34.7413 80.3216 34.624 79.8523 34.624C79.3936 34.624 78.9563 34.7413 78.5403 34.976C78.1349 35.2107 77.8043 35.552 77.5483 36C77.3029 36.448 77.1803 36.976 77.1803 37.584C77.1803 38.192 77.3029 38.7253 77.5483 39.184C77.8043 39.632 78.1349 39.9733 78.5403 40.208C78.9563 40.4427 79.3936 40.56 79.8523 40.56C80.3216 40.56 80.7589 40.4427 81.1643 40.208C81.5803 39.9627 81.9109 39.6107 82.1562 39.152C82.4123 38.6933 82.5403 38.16 82.5403 37.552ZM88.024 34.48C88.3333 34.0747 88.7547 33.7333 89.288 33.456C89.8213 33.1787 90.424 33.04 91.096 33.04C91.864 33.04 92.5627 33.232 93.192 33.616C93.832 33.9893 94.3333 34.5173 94.696 35.2C95.0587 35.8827 95.24 36.6667 95.24 37.552C95.24 38.4373 95.0587 39.232 94.696 39.936C94.3333 40.6293 93.832 41.1733 93.192 41.568C92.5627 41.952 91.864 42.144 91.096 42.144C90.424 42.144 89.8267 42.0107 89.304 41.744C88.7813 41.4667 88.3547 41.1253 88.024 40.72V46.192H86.2V33.184H88.024V34.48ZM93.384 37.552C93.384 36.944 93.256 36.4213 93 35.984C92.7547 35.536 92.424 35.2 92.008 34.976C91.6027 34.7413 91.1653 34.624 90.696 34.624C90.2373 34.624 89.8 34.7413 89.384 34.976C88.9787 35.2107 88.648 35.552 88.392 36C88.1467 36.448 88.024 36.976 88.024 37.584C88.024 38.192 88.1467 38.7253 88.392 39.184C88.648 39.632 88.9787 39.9733 89.384 40.208C89.8 40.4427 90.2373 40.56 90.696 40.56C91.1653 40.56 91.6027 40.4427 92.008 40.208C92.424 39.9627 92.7547 39.6107 93 39.152C93.256 38.6933 93.384 38.16 93.384 37.552ZM98.8678 30.16V42H97.0438V30.16H98.8678ZM109.343 37.376C109.343 37.7067 109.321 38.0053 109.279 38.272H102.543C102.596 38.976 102.857 39.5413 103.327 39.968C103.796 40.3947 104.372 40.608 105.055 40.608C106.036 40.608 106.729 40.1973 107.135 39.376H109.102C108.836 40.1867 108.351 40.8533 107.647 41.376C106.953 41.888 106.089 42.144 105.055 42.144C104.212 42.144 103.455 41.9573 102.783 41.584C102.121 41.2 101.599 40.6667 101.215 39.984C100.841 39.2907 100.655 38.4907 100.655 37.584C100.655 36.6773 100.836 35.8827 101.199 35.2C101.572 34.5067 102.089 33.9733 102.751 33.6C103.423 33.2267 104.191 33.04 105.055 33.04C105.887 33.04 106.628 33.2213 107.279 33.584C107.929 33.9467 108.436 34.4587 108.799 35.12C109.161 35.7707 109.343 36.5227 109.343 37.376ZM107.439 36.8C107.428 36.128 107.188 35.5893 106.719 35.184C106.249 34.7787 105.668 34.576 104.975 34.576C104.345 34.576 103.807 34.7787 103.359 35.184C102.911 35.5787 102.644 36.1173 102.559 36.8H107.439ZM118.958 42.112C118.211 42.112 117.539 41.984 116.942 41.728C116.344 41.4613 115.875 41.088 115.534 40.608C115.192 40.128 115.022 39.568 115.022 38.928H116.974C117.016 39.408 117.203 39.8027 117.534 40.112C117.875 40.4213 118.35 40.576 118.958 40.576C119.587 40.576 120.078 40.4267 120.43 40.128C120.782 39.8187 120.958 39.424 120.958 38.944C120.958 38.5707 120.846 38.2667 120.622 38.032C120.408 37.7973 120.136 37.616 119.806 37.488C119.486 37.36 119.038 37.2213 118.462 37.072C117.736 36.88 117.144 36.688 116.686 36.496C116.238 36.2933 115.854 35.984 115.534 35.568C115.214 35.152 115.054 34.5973 115.054 33.904C115.054 33.264 115.214 32.704 115.534 32.224C115.854 31.744 116.302 31.376 116.878 31.12C117.454 30.864 118.12 30.736 118.878 30.736C119.955 30.736 120.835 31.008 121.518 31.552C122.211 32.0853 122.595 32.8213 122.67 33.76H120.654C120.622 33.3547 120.43 33.008 120.078 32.72C119.726 32.432 119.262 32.288 118.686 32.288C118.163 32.288 117.736 32.4213 117.406 32.688C117.075 32.9547 116.91 33.3387 116.91 33.84C116.91 34.1813 117.011 34.464 117.214 34.688C117.427 34.9013 117.694 35.072 118.014 35.2C118.334 35.328 118.771 35.4667 119.326 35.616C120.062 35.8187 120.659 36.0213 121.118 36.224C121.587 36.4267 121.982 36.7413 122.302 37.168C122.632 37.584 122.798 38.144 122.798 38.848C122.798 39.4133 122.643 39.9467 122.334 40.448C122.035 40.9493 121.592 41.3547 121.006 41.664C120.43 41.9627 119.747 42.112 118.958 42.112ZM127.078 34.672V39.552C127.078 39.8827 127.153 40.1227 127.302 40.272C127.462 40.4107 127.729 40.48 128.102 40.48H129.222V42H127.782C126.961 42 126.331 41.808 125.894 41.424C125.457 41.04 125.238 40.416 125.238 39.552V34.672H124.198V33.184H125.238V30.992H127.078V33.184H129.222V34.672H127.078ZM134.727 42.144C133.895 42.144 133.143 41.9573 132.471 41.584C131.799 41.2 131.271 40.6667 130.887 39.984C130.503 39.2907 130.311 38.4907 130.311 37.584C130.311 36.688 130.508 35.8933 130.903 35.2C131.298 34.5067 131.836 33.9733 132.519 33.6C133.202 33.2267 133.964 33.04 134.807 33.04C135.65 33.04 136.412 33.2267 137.095 33.6C137.778 33.9733 138.316 34.5067 138.711 35.2C139.106 35.8933 139.303 36.688 139.303 37.584C139.303 38.48 139.1 39.2747 138.695 39.968C138.29 40.6613 137.735 41.2 137.031 41.584C136.338 41.9573 135.57 42.144 134.727 42.144ZM134.727 40.56C135.196 40.56 135.634 40.448 136.039 40.224C136.455 40 136.791 39.664 137.047 39.216C137.303 38.768 137.431 38.224 137.431 37.584C137.431 36.944 137.308 36.4053 137.063 35.968C136.818 35.52 136.492 35.184 136.087 34.96C135.682 34.736 135.244 34.624 134.775 34.624C134.306 34.624 133.868 34.736 133.463 34.96C133.068 35.184 132.754 35.52 132.519 35.968C132.284 36.4053 132.167 36.944 132.167 37.584C132.167 38.5333 132.407 39.2693 132.887 39.792C133.378 40.304 133.991 40.56 134.727 40.56ZM142.93 34.464C143.197 34.016 143.549 33.6693 143.986 33.424C144.434 33.168 144.962 33.04 145.57 33.04V34.928H145.106C144.392 34.928 143.848 35.1093 143.474 35.472C143.112 35.8347 142.93 36.464 142.93 37.36V42H141.106V33.184H142.93V34.464ZM155.327 37.376C155.327 37.7067 155.306 38.0053 155.263 38.272H148.527C148.58 38.976 148.842 39.5413 149.311 39.968C149.78 40.3947 150.356 40.608 151.039 40.608C152.02 40.608 152.714 40.1973 153.119 39.376H155.087C154.82 40.1867 154.335 40.8533 153.631 41.376C152.938 41.888 152.074 42.144 151.039 42.144C150.196 42.144 149.439 41.9573 148.767 41.584C148.106 41.2 147.583 40.6667 147.199 39.984C146.826 39.2907 146.639 38.4907 146.639 37.584C146.639 36.6773 146.82 35.8827 147.183 35.2C147.556 34.5067 148.074 33.9733 148.735 33.6C149.407 33.2267 150.175 33.04 151.039 33.04C151.871 33.04 152.612 33.2213 153.263 33.584C153.914 33.9467 154.42 34.4587 154.783 35.12C155.146 35.7707 155.327 36.5227 155.327 37.376ZM153.423 36.8C153.412 36.128 153.172 35.5893 152.703 35.184C152.234 34.7787 151.652 34.576 150.959 34.576C150.33 34.576 149.791 34.7787 149.343 35.184C148.895 35.5787 148.628 36.1173 148.543 36.8H153.423Z" fill="#2F2D2D"/>
<path d="M48 24C48 36.1484 38.1484 46 26 46C13.8516 46 4 36.1484 4 24C4 11.8516 13.8516 2 26 2C38.1484 2 48 11.8516 48 24Z" fill="#2196F3"/>
<path d="M34.4525 23.8537L31.7245 25.4388L24.2731 12.6172C23.9761 12.1057 24.1488 11.4479 24.6636 11.1476L25.5359 10.6405C26.0474 10.3435 26.7052 10.5162 27.0011 11.031L34.4525 23.8537ZM32.0281 25.9679L34.7561 24.3828L36.3379 27.0987L33.6099 28.6838L32.0281 25.9679ZM14.8241 28.5672L21.4109 17.2966L24.2214 18.9378L17.6346 30.2084L14.8241 28.5672ZM13.1136 34.3125L14.471 29.1689L17.2815 30.8145L13.4656 34.5182C13.4007 34.5875 13.294 34.5996 13.2126 34.5523C13.1268 34.5017 13.0883 34.4071 13.1136 34.3125ZM21.6386 16.9017L22.5879 15.2858C22.8849 14.7699 23.546 14.5983 24.0575 14.8986L25.0112 15.4574C25.5227 15.7577 25.6943 16.4155 25.394 16.927L24.4491 18.5473L21.6386 16.9017ZM35.9254 27.9358C35.4832 28.1888 34.821 28.5804 34.4305 28.8125C33.7001 29.247 34.2633 30.5274 34.4305 30.8024C35.3754 32.3875 36.3511 32.1642 37.0859 33.2862C37.4896 33.9011 37.3785 34.1717 37.5028 34.3774C37.5545 34.45 37.7129 34.5237 37.7734 34.4379C38.9075 32.8693 38.5764 30.171 37.7514 28.9676C37.3697 28.4044 36.6734 27.5101 35.9254 27.9358ZM39.9008 25.551H35.9815L34.271 22.4105H39.8997V25.551H39.9008ZM31.0788 25.551H20.8565L22.6011 22.4105H29.3342L31.0788 25.551ZM16.0396 25.551H12.0609V22.4105H17.9008L16.0396 25.551Z" fill="white"/>
</g>
<defs>
<filter id="filter0_dd_1_1435" x="0" y="2" width="188.766" height="52.192" filterUnits="userSpaceOnUse" color-interpolation-filters="sRGB">
<feFlood flood-opacity="0" result="BackgroundImageFix"/>
<feColorMatrix in="SourceAlpha" type="matrix" values="0 0 0 0 0 0 0 0 0 0 0 0 0 0 0 0 0 0 127 0" result="hardAlpha"/>
<feOffset dy="4"/>
<feGaussianBlur stdDeviation="2"/>
<feComposite in2="hardAlpha" operator="out"/>
<feColorMatrix type="matrix" values="0 0 0 0 0 0 0 0 0 0 0 0 0 0 0 0 0 0 0.25 0"/>
<feBlend mode="normal" in2="BackgroundImageFix" result="effect1_dropShadow_1_1435"/>
<feColorMatrix in="SourceAlpha" type="matrix" values="0 0 0 0 0 0 0 0 0 0 0 0 0 0 0 0 0 0 127 0" result="hardAlpha"/>
<feOffset dy="4"/>
<feGaussianBlur stdDeviation="2"/>
<feComposite in2="hardAlpha" operator="out"/>
<feColorMatrix type="matrix" values="0 0 0 0 0 0 0 0 0 0 0 0 0 0 0 0 0 0 0.25 0"/>
<feBlend mode="normal" in2="effect1_dropShadow_1_1435" result="effect2_dropShadow_1_1435"/>
<feBlend mode="normal" in="SourceGraphic" in2="effect2_dropShadow_1_1435" result="shape"/>
</filter>
</defs>
</svg>
