<svg width="40" height="40" viewBox="0 0 40 40" fill="none" xmlns="http://www.w3.org/2000/svg">
<path d="M40 20C40 31.044 31.044 40 20 40C8.956 40 0 31.044 0 20C0 8.956 8.956 0 20 0C31.044 0 40 8.956 40 20Z" fill="url(#paint0_linear_1_1353)"/>
<path opacity="0.05" d="M23 6H22C20.897 6 20 6.897 20 8C20 6.897 19.103 6 18 6H17C15.897 6 15 6.897 15 8V9H14C12.897 9 12 9.897 12 11V29C12 30.103 12.897 31 14 31H15V32C15 33.103 15.897 34 17 34H18C19.103 34 20 33.103 20 32V31V32C20 33.103 20.897 34 22 34H23C24.103 34 25 33.103 25 32V30.609C26.116 30.32 27.056 29.869 27.802 29.265C29.26 28.083 30 26.352 30 24.121C30 22.78 29.634 21.617 28.914 20.664C28.599 20.243 28.23 19.882 27.81 19.583C28.119 19.301 28.393 18.982 28.631 18.628C29.239 17.714 29.546 16.656 29.546 15.481C29.546 13.362 28.783 11.717 27.277 10.594C26.651 10.127 25.901 9.767 25 9.504V8C25 6.897 24.103 6 23 6ZM18 14H21.199C22.377 14 22.877 14.247 23.07 14.394C23.329 14.591 23.461 14.982 23.461 15.555C23.461 16.082 23.461 16.964 21.346 17H18V14ZM18 22H22C23.322 22.019 24 22.824 24 24.391C24 25.982 21.932 26 21.844 26H18V22Z" fill="black"/>
<path opacity="0.07" d="M23 6.5H22C21.173 6.5 20.5 7.173 20.5 8V9.5H19.5V8C19.5 7.173 18.827 6.5 18 6.5H17C16.173 6.5 15.5 7.173 15.5 8V9.5H14C13.173 9.5 12.5 10.173 12.5 11V29C12.5 29.827 13.173 30.5 14 30.5H15.5V32C15.5 32.827 16.173 33.5 17 33.5H18C18.827 33.5 19.5 32.827 19.5 32V30.5H20.5V32C20.5 32.827 21.173 33.5 22 33.5H23C23.827 33.5 24.5 32.827 24.5 32V30.214C25.713 29.95 26.716 29.501 27.487 28.876C28.823 27.793 29.5 26.193 29.5 24.121C29.5 22.891 29.169 21.83 28.515 20.965C28.093 20.401 27.563 19.957 26.935 19.636C27.444 19.291 27.873 18.861 28.216 18.349C28.768 17.52 29.047 16.555 29.047 15.481C29.047 13.528 28.351 12.019 26.979 10.994C26.322 10.503 25.508 10.139 24.501 9.885V8C24.5 7.173 23.827 6.5 23 6.5ZM17.5 13.5H21.199C22.209 13.5 22.941 13.667 23.373 13.996C23.768 14.297 23.961 14.807 23.961 15.555C23.961 16.44 23.665 17.461 21.355 17.5H17.5V13.5ZM17.5 21.5H22C23.61 21.523 24.5 22.55 24.5 24.391C24.5 26.476 21.952 26.5 21.844 26.5H17.5V21.5Z" fill="black"/>
<path d="M17 7H18C18.552 7 19 7.448 19 8V11C19 11.552 18.552 12 18 12H17C16.448 12 16 11.552 16 11V8C16 7.448 16.448 7 17 7ZM22 7H23C23.552 7 24 7.448 24 8V11C24 11.552 23.552 12 23 12H22C21.448 12 21 11.552 21 11V8C21 7.448 21.448 7 22 7ZM17 28H18C18.552 28 19 28.448 19 29V32C19 32.552 18.552 33 18 33H17C16.448 33 16 32.552 16 32V29C16 28.448 16.448 28 17 28ZM22 28H23C23.552 28 24 28.448 24 29V32C24 32.552 23.552 33 23 33H22C21.448 33 21 32.552 21 32V29C21 28.448 21.448 28 22 28ZM13 29V11C13 10.448 13.448 10 14 10H21.199C23.609 10 25.433 10.465 26.679 11.395C27.925 12.325 28.546 13.688 28.546 15.481C28.546 16.461 28.296 17.325 27.8 18.071C27.3 18.817 26.605 19.364 25.714 19.712C26.73 19.97 27.53 20.485 28.116 21.267C28.703 22.043 29 22.992 29 24.121C29 26.043 28.391 27.5 27.172 28.488C25.953 29.476 24.219 29.98 21.965 30H14C13.448 30 13 29.552 13 29ZM17 18H21.363C23.426 17.965 24.461 17.176 24.461 15.555C24.461 14.649 24.199 13.996 23.676 13.598C23.153 13.2 22.328 13 21.199 13H17V18ZM17 21V27H21.844C22.805 27 25 26.531 25 24.391C25 22.251 23.883 21.027 22 21H17Z" fill="white"/>
<defs>
<linearGradient id="paint0_linear_1_1353" x1="9.999" y1="2.677" x2="30.001" y2="37.323" gradientUnits="userSpaceOnUse">
<stop stop-color="#FFDA1C"/>
<stop offset="1" stop-color="#FEB705"/>
</linearGradient>
</defs>
</svg>
