<svg width="182" height="48" viewBox="0 0 182 48" fill="none" xmlns="http://www.w3.org/2000/svg">
<path d="M63.704 6.848C64.92 6.848 65.9707 7.07733 66.856 7.536C67.752 7.984 68.4347 8.62933 68.904 9.472C69.384 10.3147 69.624 11.3067 69.624 12.448C69.624 13.5893 69.384 14.5813 68.904 15.424C68.4347 16.256 67.752 16.896 66.856 17.344C65.9707 17.7813 64.92 18 63.704 18H60.232V6.848H63.704ZM63.704 16.8C65.144 16.8 66.2427 16.4213 67 15.664C67.7573 14.896 68.136 13.824 68.136 12.448C68.136 11.0613 67.752 9.97867 66.984 9.2C66.2267 8.42133 65.1333 8.032 63.704 8.032H61.688V16.8H63.704ZM75.3685 18.144C74.5472 18.144 73.8005 17.9573 73.1285 17.584C72.4672 17.2107 71.9445 16.6827 71.5605 16C71.1872 15.3067 71.0005 14.5067 71.0005 13.6C71.0005 12.704 71.1925 11.9147 71.5765 11.232C71.9712 10.5387 72.5045 10.0107 73.1765 9.648C73.8485 9.27467 74.6005 9.088 75.4325 9.088C76.2645 9.088 77.0165 9.27467 77.6885 9.648C78.3605 10.0107 78.8885 10.5333 79.2725 11.216C79.6672 11.8987 79.8645 12.6933 79.8645 13.6C79.8645 14.5067 79.6618 15.3067 79.2565 16C78.8618 16.6827 78.3232 17.2107 77.6405 17.584C76.9578 17.9573 76.2005 18.144 75.3685 18.144ZM75.3685 16.864C75.8912 16.864 76.3818 16.7413 76.8405 16.496C77.2992 16.2507 77.6672 15.8827 77.9445 15.392C78.2325 14.9013 78.3765 14.304 78.3765 13.6C78.3765 12.896 78.2378 12.2987 77.9605 11.808C77.6832 11.3173 77.3205 10.9547 76.8725 10.72C76.4245 10.4747 75.9392 10.352 75.4165 10.352C74.8832 10.352 74.3925 10.4747 73.9445 10.72C73.5072 10.9547 73.1552 11.3173 72.8885 11.808C72.6218 12.2987 72.4885 12.896 72.4885 13.6C72.4885 14.3147 72.6165 14.9173 72.8725 15.408C73.1392 15.8987 73.4912 16.2667 73.9285 16.512C74.3658 16.7467 74.8458 16.864 75.3685 16.864ZM93.4589 9.232L90.7229 18H89.2189L87.1069 11.04L84.9949 18H83.4909L80.7389 9.232H82.2269L84.2429 16.592L86.4189 9.232H87.9069L90.0349 16.608L92.0189 9.232H93.4589ZM99.1759 9.072C100.243 9.072 101.107 9.39733 101.768 10.048C102.429 10.688 102.76 11.616 102.76 12.832V18H101.32V13.04C101.32 12.1653 101.101 11.4987 100.664 11.04C100.227 10.5707 99.6292 10.336 98.8719 10.336C98.1039 10.336 97.4905 10.576 97.0319 11.056C96.5839 11.536 96.3599 12.2347 96.3599 13.152V18H94.9039V9.232H96.3599V10.48C96.6479 10.032 97.0372 9.68533 97.5279 9.44C98.0292 9.19467 98.5785 9.072 99.1759 9.072ZM106.594 6.16V18H105.138V6.16H106.594ZM112.9 18.144C112.078 18.144 111.332 17.9573 110.66 17.584C109.998 17.2107 109.476 16.6827 109.092 16C108.718 15.3067 108.532 14.5067 108.532 13.6C108.532 12.704 108.724 11.9147 109.108 11.232C109.502 10.5387 110.036 10.0107 110.708 9.648C111.38 9.27467 112.132 9.088 112.964 9.088C113.796 9.088 114.548 9.27467 115.22 9.648C115.892 10.0107 116.42 10.5333 116.804 11.216C117.198 11.8987 117.396 12.6933 117.396 13.6C117.396 14.5067 117.193 15.3067 116.788 16C116.393 16.6827 115.854 17.2107 115.172 17.584C114.489 17.9573 113.732 18.144 112.9 18.144ZM112.9 16.864C113.422 16.864 113.913 16.7413 114.372 16.496C114.83 16.2507 115.198 15.8827 115.476 15.392C115.764 14.9013 115.908 14.304 115.908 13.6C115.908 12.896 115.769 12.2987 115.492 11.808C115.214 11.3173 114.852 10.9547 114.404 10.72C113.956 10.4747 113.47 10.352 112.948 10.352C112.414 10.352 111.924 10.4747 111.476 10.72C111.038 10.9547 110.686 11.3173 110.42 11.808C110.153 12.2987 110.02 12.896 110.02 13.6C110.02 14.3147 110.148 14.9173 110.404 15.408C110.67 15.8987 111.022 16.2667 111.46 16.512C111.897 16.7467 112.377 16.864 112.9 16.864ZM118.766 13.584C118.766 12.688 118.947 11.904 119.31 11.232C119.673 10.5493 120.169 10.0213 120.798 9.648C121.438 9.27467 122.147 9.088 122.926 9.088C123.694 9.088 124.361 9.25333 124.926 9.584C125.491 9.91467 125.913 10.3307 126.19 10.832V9.232H127.662V18H126.19V16.368C125.902 16.88 125.47 17.3067 124.894 17.648C124.329 17.9787 123.667 18.144 122.91 18.144C122.131 18.144 121.427 17.952 120.798 17.568C120.169 17.184 119.673 16.6453 119.31 15.952C118.947 15.2587 118.766 14.4693 118.766 13.584ZM126.19 13.6C126.19 12.9387 126.057 12.3627 125.79 11.872C125.523 11.3813 125.161 11.008 124.702 10.752C124.254 10.4853 123.758 10.352 123.214 10.352C122.67 10.352 122.174 10.48 121.726 10.736C121.278 10.992 120.921 11.3653 120.654 11.856C120.387 12.3467 120.254 12.9227 120.254 13.584C120.254 14.256 120.387 14.8427 120.654 15.344C120.921 15.8347 121.278 16.2133 121.726 16.48C122.174 16.736 122.67 16.864 123.214 16.864C123.758 16.864 124.254 16.736 124.702 16.48C125.161 16.2133 125.523 15.8347 125.79 15.344C126.057 14.8427 126.19 14.2613 126.19 13.6ZM129.579 13.584C129.579 12.688 129.76 11.904 130.123 11.232C130.485 10.5493 130.981 10.0213 131.611 9.648C132.251 9.27467 132.965 9.088 133.755 9.088C134.437 9.088 135.072 9.248 135.659 9.568C136.245 9.87733 136.693 10.288 137.003 10.8V6.16H138.475V18H137.003V16.352C136.715 16.8747 136.288 17.3067 135.723 17.648C135.157 17.9787 134.496 18.144 133.739 18.144C132.96 18.144 132.251 17.952 131.611 17.568C130.981 17.184 130.485 16.6453 130.123 15.952C129.76 15.2587 129.579 14.4693 129.579 13.584ZM137.003 13.6C137.003 12.9387 136.869 12.3627 136.603 11.872C136.336 11.3813 135.973 11.008 135.515 10.752C135.067 10.4853 134.571 10.352 134.027 10.352C133.483 10.352 132.987 10.48 132.539 10.736C132.091 10.992 131.733 11.3653 131.467 11.856C131.2 12.3467 131.067 12.9227 131.067 13.584C131.067 14.256 131.2 14.8427 131.467 15.344C131.733 15.8347 132.091 16.2133 132.539 16.48C132.987 16.736 133.483 16.864 134.027 16.864C134.571 16.864 135.067 16.736 135.515 16.48C135.973 16.2133 136.336 15.8347 136.603 15.344C136.869 14.8427 137.003 14.2613 137.003 13.6ZM148.769 10.432H146.929V18H145.473V10.432H144.337V9.232H145.473V8.608C145.473 7.62667 145.723 6.912 146.225 6.464C146.737 6.00533 147.553 5.776 148.673 5.776V6.992C148.033 6.992 147.579 7.12 147.313 7.376C147.057 7.62133 146.929 8.032 146.929 8.608V9.232H148.769V10.432ZM151.922 10.656C152.178 10.1547 152.541 9.76533 153.01 9.488C153.49 9.21067 154.072 9.072 154.754 9.072V10.576H154.37C152.738 10.576 151.922 11.4613 151.922 13.232V18H150.466V9.232H151.922V10.656ZM160.259 18.144C159.438 18.144 158.691 17.9573 158.019 17.584C157.358 17.2107 156.835 16.6827 156.451 16C156.078 15.3067 155.891 14.5067 155.891 13.6C155.891 12.704 156.083 11.9147 156.467 11.232C156.862 10.5387 157.395 10.0107 158.067 9.648C158.739 9.27467 159.491 9.088 160.323 9.088C161.155 9.088 161.907 9.27467 162.579 9.648C163.251 10.0107 163.779 10.5333 164.163 11.216C164.558 11.8987 164.755 12.6933 164.755 13.6C164.755 14.5067 164.552 15.3067 164.147 16C163.752 16.6827 163.214 17.2107 162.531 17.584C161.848 17.9573 161.091 18.144 160.259 18.144ZM160.259 16.864C160.782 16.864 161.272 16.7413 161.731 16.496C162.19 16.2507 162.558 15.8827 162.835 15.392C163.123 14.9013 163.267 14.304 163.267 13.6C163.267 12.896 163.128 12.2987 162.851 11.808C162.574 11.3173 162.211 10.9547 161.763 10.72C161.315 10.4747 160.83 10.352 160.307 10.352C159.774 10.352 159.283 10.4747 158.835 10.72C158.398 10.9547 158.046 11.3173 157.779 11.808C157.512 12.2987 157.379 12.896 157.379 13.6C157.379 14.3147 157.507 14.9173 157.763 15.408C158.03 15.8987 158.382 16.2667 158.819 16.512C159.256 16.7467 159.736 16.864 160.259 16.864ZM177.214 9.072C177.896 9.072 178.504 9.216 179.038 9.504C179.571 9.78133 179.992 10.2027 180.302 10.768C180.611 11.3333 180.766 12.0213 180.766 12.832V18H179.326V13.04C179.326 12.1653 179.107 11.4987 178.67 11.04C178.243 10.5707 177.662 10.336 176.926 10.336C176.168 10.336 175.566 10.5813 175.118 11.072C174.67 11.552 174.446 12.2507 174.446 13.168V18H173.006V13.04C173.006 12.1653 172.787 11.4987 172.35 11.04C171.923 10.5707 171.342 10.336 170.606 10.336C169.848 10.336 169.246 10.5813 168.798 11.072C168.35 11.552 168.126 12.2507 168.126 13.168V18H166.67V9.232H168.126V10.496C168.414 10.0373 168.798 9.68533 169.278 9.44C169.768 9.19467 170.307 9.072 170.894 9.072C171.63 9.072 172.28 9.23733 172.846 9.568C173.411 9.89867 173.832 10.384 174.11 11.024C174.355 10.4053 174.76 9.92533 175.326 9.584C175.891 9.24267 176.52 9.072 177.214 9.072Z" fill="#515151"/>
<path d="M71.912 30.88V42H70.088V34.384L66.696 42H65.432L62.024 34.384V42H60.2V30.88H62.168L66.072 39.6L69.96 30.88H71.912ZM73.7014 37.552C73.7014 36.6667 73.8827 35.8827 74.2454 35.2C74.6187 34.5173 75.12 33.9893 75.7494 33.616C76.3894 33.232 77.0934 33.04 77.8614 33.04C78.5547 33.04 79.1574 33.1787 79.6694 33.456C80.192 33.7227 80.608 34.0587 80.9174 34.464V33.184H82.7574V42H80.9174V40.688C80.608 41.104 80.1867 41.4507 79.6534 41.728C79.12 42.0053 78.512 42.144 77.8294 42.144C77.072 42.144 76.3787 41.952 75.7494 41.568C75.12 41.1733 74.6187 40.6293 74.2454 39.936C73.8827 39.232 73.7014 38.4373 73.7014 37.552ZM80.9174 37.584C80.9174 36.976 80.7894 36.448 80.5334 36C80.288 35.552 79.9627 35.2107 79.5574 34.976C79.152 34.7413 78.7147 34.624 78.2454 34.624C77.776 34.624 77.3387 34.7413 76.9334 34.976C76.528 35.2 76.1974 35.536 75.9414 35.984C75.696 36.4213 75.5734 36.944 75.5734 37.552C75.5734 38.16 75.696 38.6933 75.9414 39.152C76.1974 39.6107 76.528 39.9627 76.9334 40.208C77.3494 40.4427 77.7867 40.56 78.2454 40.56C78.7147 40.56 79.152 40.4427 79.5574 40.208C79.9627 39.9733 80.288 39.632 80.5334 39.184C80.7894 38.7253 80.9174 38.192 80.9174 37.584ZM84.5451 37.584C84.5451 36.6773 84.7265 35.8827 85.0891 35.2C85.4625 34.5067 85.9745 33.9733 86.6251 33.6C87.2758 33.2267 88.0225 33.04 88.8651 33.04C89.9318 33.04 90.8118 33.296 91.5051 33.808C92.2091 34.3093 92.6838 35.0293 92.9291 35.968H90.9611C90.8011 35.5307 90.5451 35.1893 90.1931 34.944C89.8411 34.6987 89.3985 34.576 88.8651 34.576C88.1185 34.576 87.5211 34.8427 87.0731 35.376C86.6358 35.8987 86.4171 36.6347 86.4171 37.584C86.4171 38.5333 86.6358 39.2747 87.0731 39.808C87.5211 40.3413 88.1185 40.608 88.8651 40.608C89.9211 40.608 90.6198 40.144 90.9611 39.216H92.9291C92.6731 40.112 92.1931 40.8267 91.4891 41.36C90.7851 41.8827 89.9105 42.144 88.8651 42.144C88.0225 42.144 87.2758 41.9573 86.6251 41.584C85.9745 41.2 85.4625 40.6667 85.0891 39.984C84.7265 39.2907 84.5451 38.4907 84.5451 37.584ZM103.975 42.112C102.94 42.112 101.986 41.872 101.111 41.392C100.247 40.9013 99.5591 40.224 99.0471 39.36C98.5458 38.4853 98.2951 37.504 98.2951 36.416C98.2951 35.328 98.5458 34.352 99.0471 33.488C99.5591 32.624 100.247 31.952 101.111 31.472C101.986 30.9813 102.94 30.736 103.975 30.736C105.02 30.736 105.975 30.9813 106.839 31.472C107.714 31.952 108.402 32.624 108.903 33.488C109.404 34.352 109.655 35.328 109.655 36.416C109.655 37.504 109.404 38.4853 108.903 39.36C108.402 40.224 107.714 40.9013 106.839 41.392C105.975 41.872 105.02 42.112 103.975 42.112ZM103.975 40.528C104.711 40.528 105.367 40.3627 105.943 40.032C106.519 39.6907 106.967 39.2107 107.287 38.592C107.618 37.9627 107.783 37.2373 107.783 36.416C107.783 35.5947 107.618 34.8747 107.287 34.256C106.967 33.6373 106.519 33.1627 105.943 32.832C105.367 32.5013 104.711 32.336 103.975 32.336C103.239 32.336 102.583 32.5013 102.007 32.832C101.431 33.1627 100.978 33.6373 100.647 34.256C100.327 34.8747 100.167 35.5947 100.167 36.416C100.167 37.2373 100.327 37.9627 100.647 38.592C100.978 39.2107 101.431 39.6907 102.007 40.032C102.583 40.3627 103.239 40.528 103.975 40.528ZM115.114 42.112C114.367 42.112 113.695 41.984 113.098 41.728C112.501 41.4613 112.031 41.088 111.69 40.608C111.349 40.128 111.178 39.568 111.178 38.928H113.13C113.173 39.408 113.359 39.8027 113.69 40.112C114.031 40.4213 114.506 40.576 115.114 40.576C115.743 40.576 116.234 40.4267 116.586 40.128C116.938 39.8187 117.114 39.424 117.114 38.944C117.114 38.5707 117.002 38.2667 116.778 38.032C116.565 37.7973 116.293 37.616 115.962 37.488C115.642 37.36 115.194 37.2213 114.618 37.072C113.893 36.88 113.301 36.688 112.842 36.496C112.394 36.2933 112.01 35.984 111.69 35.568C111.37 35.152 111.21 34.5973 111.21 33.904C111.21 33.264 111.37 32.704 111.69 32.224C112.01 31.744 112.458 31.376 113.034 31.12C113.61 30.864 114.277 30.736 115.034 30.736C116.111 30.736 116.991 31.008 117.674 31.552C118.367 32.0853 118.751 32.8213 118.826 33.76H116.81C116.778 33.3547 116.586 33.008 116.234 32.72C115.882 32.432 115.418 32.288 114.842 32.288C114.319 32.288 113.893 32.4213 113.562 32.688C113.231 32.9547 113.066 33.3387 113.066 33.84C113.066 34.1813 113.167 34.464 113.37 34.688C113.583 34.9013 113.85 35.072 114.17 35.2C114.49 35.328 114.927 35.4667 115.482 35.616C116.218 35.8187 116.815 36.0213 117.274 36.224C117.743 36.4267 118.138 36.7413 118.458 37.168C118.789 37.584 118.954 38.144 118.954 38.848C118.954 39.4133 118.799 39.9467 118.49 40.448C118.191 40.9493 117.749 41.3547 117.162 41.664C116.586 41.9627 115.903 42.112 115.114 42.112Z" fill="#2F2D2D"/>
<path d="M22 46.1C34.1503 46.1 44 36.2503 44 24.1C44 11.9497 34.1503 2.10001 22 2.10001C9.84974 2.10001 0 11.9497 0 24.1C0 36.2503 9.84974 46.1 22 46.1Z" fill="#BDBDBD"/>
<path d="M22 45C34.1503 45 44 35.1503 44 23C44 10.8497 34.1503 1 22 1C9.84974 1 0 10.8497 0 23C0 35.1503 9.84974 45 22 45Z" fill="#ECEFF1"/>
<path d="M14.3343 12.1441L14.3552 12.6446C14.6907 12.2552 15.1428 12.0605 15.7126 12.0605C16.3528 12.0605 16.7884 12.3025 17.0205 12.7865C17.1723 12.5698 17.3703 12.3949 17.6145 12.2607C17.8587 12.1265 18.148 12.0605 18.4802 12.0605C19.4834 12.0605 19.9949 12.5852 20.0114 13.6324V16.6552H19.2282V13.6775C19.2282 13.3552 19.1545 13.1143 19.0049 12.9537C18.8553 12.7942 18.6045 12.7139 18.2514 12.7139C17.961 12.7139 17.7201 12.7997 17.5276 12.9702C17.3362 13.1418 17.224 13.3717 17.1943 13.6599V16.6541H16.4078V13.6984C16.4078 13.0428 16.0822 12.7139 15.431 12.7139C14.9173 12.7139 14.5664 12.9295 14.3772 13.3596V16.6541H13.5951V12.1419H14.3343V12.1441ZM24.9779 15.6014V13.5246C24.9669 13.0681 24.8008 12.7106 24.484 12.451C24.1672 12.1914 23.7272 12.0616 23.1662 12.0616C22.8131 12.0616 22.4886 12.1232 22.1927 12.2453C21.8968 12.3674 21.6636 12.5335 21.492 12.7436C21.3193 12.9537 21.2335 13.1715 21.2335 13.3959H22.0695C22.0695 13.199 22.1696 13.0307 22.3709 12.8921C22.5722 12.7535 22.8208 12.6842 23.1178 12.6842C23.4566 12.6842 23.7118 12.7645 23.8867 12.924C24.0605 13.0846 24.1474 13.2991 24.1474 13.5686V13.9228H23.3378C22.6404 13.9228 22.0981 14.0526 21.7131 14.3122C21.3281 14.5718 21.1356 14.937 21.1356 15.4067C21.1356 15.7939 21.2885 16.1118 21.5965 16.3637C21.9034 16.6156 22.2972 16.741 22.7757 16.741C23.3125 16.741 23.7745 16.5551 24.1606 16.1822C24.1903 16.4099 24.2299 16.5683 24.2772 16.6574H25.1495V16.5903C25.0351 16.345 24.9779 16.0161 24.9779 15.6014ZM24.1463 15.3935C24.0407 15.5937 23.8724 15.7565 23.637 15.8808C23.4038 16.0062 23.1563 16.0678 22.8956 16.0678C22.6228 16.0678 22.3995 15.9996 22.2257 15.8632C22.0508 15.7268 21.965 15.5387 21.965 15.2956C21.965 14.7423 22.4743 14.4662 23.494 14.4662H24.1463V15.3935ZM28.1316 16.1096C28.4187 16.1096 28.6684 16.026 28.884 15.8588C29.0985 15.6927 29.2173 15.4837 29.2404 15.234H30.0005C29.9862 15.4925 29.8927 15.7378 29.7222 15.9721C29.5517 16.2064 29.324 16.3912 29.038 16.5309C28.752 16.6706 28.4506 16.7388 28.1316 16.7388C27.4914 16.7388 26.9821 16.5342 26.6026 16.1239C26.2242 15.7136 26.035 15.1537 26.035 14.442V14.3122C26.035 13.8733 26.1197 13.4828 26.2869 13.1407C26.4552 12.7986 26.6961 12.5335 27.0107 12.3443C27.3253 12.1551 27.6971 12.0605 28.1261 12.0605C28.653 12.0605 29.0919 12.2123 29.4406 12.5148C29.7893 12.8173 29.9763 13.2111 29.9994 13.6951H29.2393C29.2162 13.4036 29.1007 13.1638 28.8939 12.9757C28.6871 12.7876 28.4308 12.6941 28.1272 12.6941C27.7191 12.6941 27.4023 12.8349 27.1779 13.1176C26.9535 13.4003 26.8402 13.8084 26.8402 14.343V14.4882C26.8402 15.0085 26.9524 15.4078 27.1757 15.6894C27.3979 15.9699 27.7169 16.1096 28.1316 16.1096ZM22.1168 27.2834C22.1168 28.6617 21.8495 29.8651 21.3138 30.8925C20.7781 31.9199 20.0191 32.7031 19.039 33.2454C18.0567 33.7866 16.9127 34.0572 15.6037 34.0572C14.3255 34.0572 13.1914 33.7855 12.2014 33.241C11.2136 32.6965 10.4447 31.9199 9.89912 30.9123C9.35242 29.9036 9.07082 28.7354 9.05762 27.4088V26.3935C9.05762 25.0416 9.32822 23.8459 9.87052 22.8086C10.4139 21.7713 11.1806 20.9771 12.1739 20.4271C13.1661 19.876 14.3024 19.601 15.5806 19.601C16.8819 19.601 18.0292 19.8738 19.0214 20.4183C20.0147 20.9628 20.7781 21.7515 21.3138 22.7855C21.8495 23.8195 22.1168 25.0229 22.1168 26.3946V27.2834ZM20.0631 26.3869C20.0631 24.7182 19.6 23.5665 18.8267 22.6744C18.0534 21.7823 16.971 21.3357 15.5806 21.3357C14.2265 21.3357 13.1617 21.7823 12.3862 22.6744C11.6085 23.5665 11.1333 24.7589 11.1113 26.3429V27.3769C11.1113 28.9939 11.5788 29.9993 12.3642 30.9233C13.1474 31.8473 14.2276 32.3104 15.6037 32.3104C16.9875 32.3104 18.0567 31.8737 18.8157 31.0014C19.5747 30.128 20.0411 29.061 20.0631 27.4308V26.3869ZM29.1909 25.7456C27.9611 25.4156 25.9789 25.2187 25.9789 23.4026C25.9789 22.6865 26.6279 21.2928 28.9214 21.2928C31.4547 21.2928 31.9662 22.8856 32.0168 23.6226H33.9825C33.9418 22.9362 33.8813 22.296 33.4897 21.7075C33.053 21.0508 32.4359 20.536 31.6406 20.162C30.8442 19.788 29.9378 19.601 28.9214 19.601C25.6269 19.601 23.9769 21.526 23.9769 23.4466C23.9769 24.4256 24.2673 25.4827 25.0296 26.1493C25.7908 26.8159 26.9645 27.158 28.6882 27.5925C30.0676 27.9401 32.2137 28.291 32.2137 30.3084C32.2137 30.997 31.1555 32.3808 29.0226 32.3808C26.4167 32.3808 25.6225 30.733 25.5752 29.9762H23.6084C23.6436 30.7165 24.0825 34.0572 29.0226 34.0572C33.2972 34.0572 34.2454 31.2214 34.2454 30.0818C34.2465 26.3605 30.4207 26.0745 29.1909 25.7456Z" fill="#616161"/>
</svg>
