<svg width="182" height="48" viewBox="0 0 182 48" fill="none" xmlns="http://www.w3.org/2000/svg">
<path d="M63.704 6.848C64.92 6.848 65.9707 7.07733 66.856 7.536C67.752 7.984 68.4347 8.62933 68.904 9.472C69.384 10.3147 69.624 11.3067 69.624 12.448C69.624 13.5893 69.384 14.5813 68.904 15.424C68.4347 16.256 67.752 16.896 66.856 17.344C65.9707 17.7813 64.92 18 63.704 18H60.232V6.848H63.704ZM63.704 16.8C65.144 16.8 66.2427 16.4213 67 15.664C67.7573 14.896 68.136 13.824 68.136 12.448C68.136 11.0613 67.752 9.97867 66.984 9.2C66.2267 8.42133 65.1333 8.032 63.704 8.032H61.688V16.8H63.704ZM75.3685 18.144C74.5472 18.144 73.8005 17.9573 73.1285 17.584C72.4672 17.2107 71.9445 16.6827 71.5605 16C71.1872 15.3067 71.0005 14.5067 71.0005 13.6C71.0005 12.704 71.1925 11.9147 71.5765 11.232C71.9712 10.5387 72.5045 10.0107 73.1765 9.648C73.8485 9.27467 74.6005 9.088 75.4325 9.088C76.2645 9.088 77.0165 9.27467 77.6885 9.648C78.3605 10.0107 78.8885 10.5333 79.2725 11.216C79.6672 11.8987 79.8645 12.6933 79.8645 13.6C79.8645 14.5067 79.6618 15.3067 79.2565 16C78.8618 16.6827 78.3232 17.2107 77.6405 17.584C76.9578 17.9573 76.2005 18.144 75.3685 18.144ZM75.3685 16.864C75.8912 16.864 76.3818 16.7413 76.8405 16.496C77.2992 16.2507 77.6672 15.8827 77.9445 15.392C78.2325 14.9013 78.3765 14.304 78.3765 13.6C78.3765 12.896 78.2378 12.2987 77.9605 11.808C77.6832 11.3173 77.3205 10.9547 76.8725 10.72C76.4245 10.4747 75.9392 10.352 75.4165 10.352C74.8832 10.352 74.3925 10.4747 73.9445 10.72C73.5072 10.9547 73.1552 11.3173 72.8885 11.808C72.6218 12.2987 72.4885 12.896 72.4885 13.6C72.4885 14.3147 72.6165 14.9173 72.8725 15.408C73.1392 15.8987 73.4912 16.2667 73.9285 16.512C74.3658 16.7467 74.8458 16.864 75.3685 16.864ZM93.4589 9.232L90.7229 18H89.2189L87.1069 11.04L84.9949 18H83.4909L80.7389 9.232H82.2269L84.2429 16.592L86.4189 9.232H87.9069L90.0349 16.608L92.0189 9.232H93.4589ZM99.1759 9.072C100.243 9.072 101.107 9.39733 101.768 10.048C102.429 10.688 102.76 11.616 102.76 12.832V18H101.32V13.04C101.32 12.1653 101.101 11.4987 100.664 11.04C100.227 10.5707 99.6292 10.336 98.8719 10.336C98.1039 10.336 97.4905 10.576 97.0319 11.056C96.5839 11.536 96.3599 12.2347 96.3599 13.152V18H94.9039V9.232H96.3599V10.48C96.6479 10.032 97.0372 9.68533 97.5279 9.44C98.0292 9.19467 98.5785 9.072 99.1759 9.072ZM106.594 6.16V18H105.138V6.16H106.594ZM112.9 18.144C112.078 18.144 111.332 17.9573 110.66 17.584C109.998 17.2107 109.476 16.6827 109.092 16C108.718 15.3067 108.532 14.5067 108.532 13.6C108.532 12.704 108.724 11.9147 109.108 11.232C109.502 10.5387 110.036 10.0107 110.708 9.648C111.38 9.27467 112.132 9.088 112.964 9.088C113.796 9.088 114.548 9.27467 115.22 9.648C115.892 10.0107 116.42 10.5333 116.804 11.216C117.198 11.8987 117.396 12.6933 117.396 13.6C117.396 14.5067 117.193 15.3067 116.788 16C116.393 16.6827 115.854 17.2107 115.172 17.584C114.489 17.9573 113.732 18.144 112.9 18.144ZM112.9 16.864C113.422 16.864 113.913 16.7413 114.372 16.496C114.83 16.2507 115.198 15.8827 115.476 15.392C115.764 14.9013 115.908 14.304 115.908 13.6C115.908 12.896 115.769 12.2987 115.492 11.808C115.214 11.3173 114.852 10.9547 114.404 10.72C113.956 10.4747 113.47 10.352 112.948 10.352C112.414 10.352 111.924 10.4747 111.476 10.72C111.038 10.9547 110.686 11.3173 110.42 11.808C110.153 12.2987 110.02 12.896 110.02 13.6C110.02 14.3147 110.148 14.9173 110.404 15.408C110.67 15.8987 111.022 16.2667 111.46 16.512C111.897 16.7467 112.377 16.864 112.9 16.864ZM118.766 13.584C118.766 12.688 118.947 11.904 119.31 11.232C119.673 10.5493 120.169 10.0213 120.798 9.648C121.438 9.27467 122.147 9.088 122.926 9.088C123.694 9.088 124.361 9.25333 124.926 9.584C125.491 9.91467 125.913 10.3307 126.19 10.832V9.232H127.662V18H126.19V16.368C125.902 16.88 125.47 17.3067 124.894 17.648C124.329 17.9787 123.667 18.144 122.91 18.144C122.131 18.144 121.427 17.952 120.798 17.568C120.169 17.184 119.673 16.6453 119.31 15.952C118.947 15.2587 118.766 14.4693 118.766 13.584ZM126.19 13.6C126.19 12.9387 126.057 12.3627 125.79 11.872C125.523 11.3813 125.161 11.008 124.702 10.752C124.254 10.4853 123.758 10.352 123.214 10.352C122.67 10.352 122.174 10.48 121.726 10.736C121.278 10.992 120.921 11.3653 120.654 11.856C120.387 12.3467 120.254 12.9227 120.254 13.584C120.254 14.256 120.387 14.8427 120.654 15.344C120.921 15.8347 121.278 16.2133 121.726 16.48C122.174 16.736 122.67 16.864 123.214 16.864C123.758 16.864 124.254 16.736 124.702 16.48C125.161 16.2133 125.523 15.8347 125.79 15.344C126.057 14.8427 126.19 14.2613 126.19 13.6ZM129.579 13.584C129.579 12.688 129.76 11.904 130.123 11.232C130.485 10.5493 130.981 10.0213 131.611 9.648C132.251 9.27467 132.965 9.088 133.755 9.088C134.437 9.088 135.072 9.248 135.659 9.568C136.245 9.87733 136.693 10.288 137.003 10.8V6.16H138.475V18H137.003V16.352C136.715 16.8747 136.288 17.3067 135.723 17.648C135.157 17.9787 134.496 18.144 133.739 18.144C132.96 18.144 132.251 17.952 131.611 17.568C130.981 17.184 130.485 16.6453 130.123 15.952C129.76 15.2587 129.579 14.4693 129.579 13.584ZM137.003 13.6C137.003 12.9387 136.869 12.3627 136.603 11.872C136.336 11.3813 135.973 11.008 135.515 10.752C135.067 10.4853 134.571 10.352 134.027 10.352C133.483 10.352 132.987 10.48 132.539 10.736C132.091 10.992 131.733 11.3653 131.467 11.856C131.2 12.3467 131.067 12.9227 131.067 13.584C131.067 14.256 131.2 14.8427 131.467 15.344C131.733 15.8347 132.091 16.2133 132.539 16.48C132.987 16.736 133.483 16.864 134.027 16.864C134.571 16.864 135.067 16.736 135.515 16.48C135.973 16.2133 136.336 15.8347 136.603 15.344C136.869 14.8427 137.003 14.2613 137.003 13.6ZM148.769 10.432H146.929V18H145.473V10.432H144.337V9.232H145.473V8.608C145.473 7.62667 145.723 6.912 146.225 6.464C146.737 6.00533 147.553 5.776 148.673 5.776V6.992C148.033 6.992 147.579 7.12 147.313 7.376C147.057 7.62133 146.929 8.032 146.929 8.608V9.232H148.769V10.432ZM151.922 10.656C152.178 10.1547 152.541 9.76533 153.01 9.488C153.49 9.21067 154.072 9.072 154.754 9.072V10.576H154.37C152.738 10.576 151.922 11.4613 151.922 13.232V18H150.466V9.232H151.922V10.656ZM160.259 18.144C159.438 18.144 158.691 17.9573 158.019 17.584C157.358 17.2107 156.835 16.6827 156.451 16C156.078 15.3067 155.891 14.5067 155.891 13.6C155.891 12.704 156.083 11.9147 156.467 11.232C156.862 10.5387 157.395 10.0107 158.067 9.648C158.739 9.27467 159.491 9.088 160.323 9.088C161.155 9.088 161.907 9.27467 162.579 9.648C163.251 10.0107 163.779 10.5333 164.163 11.216C164.558 11.8987 164.755 12.6933 164.755 13.6C164.755 14.5067 164.552 15.3067 164.147 16C163.752 16.6827 163.214 17.2107 162.531 17.584C161.848 17.9573 161.091 18.144 160.259 18.144ZM160.259 16.864C160.782 16.864 161.272 16.7413 161.731 16.496C162.19 16.2507 162.558 15.8827 162.835 15.392C163.123 14.9013 163.267 14.304 163.267 13.6C163.267 12.896 163.128 12.2987 162.851 11.808C162.574 11.3173 162.211 10.9547 161.763 10.72C161.315 10.4747 160.83 10.352 160.307 10.352C159.774 10.352 159.283 10.4747 158.835 10.72C158.398 10.9547 158.046 11.3173 157.779 11.808C157.512 12.2987 157.379 12.896 157.379 13.6C157.379 14.3147 157.507 14.9173 157.763 15.408C158.03 15.8987 158.382 16.2667 158.819 16.512C159.256 16.7467 159.736 16.864 160.259 16.864ZM177.214 9.072C177.896 9.072 178.504 9.216 179.038 9.504C179.571 9.78133 179.992 10.2027 180.302 10.768C180.611 11.3333 180.766 12.0213 180.766 12.832V18H179.326V13.04C179.326 12.1653 179.107 11.4987 178.67 11.04C178.243 10.5707 177.662 10.336 176.926 10.336C176.168 10.336 175.566 10.5813 175.118 11.072C174.67 11.552 174.446 12.2507 174.446 13.168V18H173.006V13.04C173.006 12.1653 172.787 11.4987 172.35 11.04C171.923 10.5707 171.342 10.336 170.606 10.336C169.848 10.336 169.246 10.5813 168.798 11.072C168.35 11.552 168.126 12.2507 168.126 13.168V18H166.67V9.232H168.126V10.496C168.414 10.0373 168.798 9.68533 169.278 9.44C169.768 9.19467 170.307 9.072 170.894 9.072C171.63 9.072 172.28 9.23733 172.846 9.568C173.411 9.89867 173.832 10.384 174.11 11.024C174.355 10.4053 174.76 9.92533 175.326 9.584C175.891 9.24267 176.52 9.072 177.214 9.072Z" fill="#515151"/>
<path d="M68.248 34.08C67.96 33.5253 67.56 33.1093 67.048 32.832C66.536 32.544 65.944 32.4 65.272 32.4C64.536 32.4 63.88 32.5653 63.304 32.896C62.728 33.2267 62.2747 33.696 61.944 34.304C61.624 34.912 61.464 35.616 61.464 36.416C61.464 37.216 61.624 37.9253 61.944 38.544C62.2747 39.152 62.728 39.6213 63.304 39.952C63.88 40.2827 64.536 40.448 65.272 40.448C66.264 40.448 67.0693 40.1707 67.688 39.616C68.3067 39.0613 68.6853 38.3093 68.824 37.36H64.648V35.904H70.776V37.328C70.6587 38.192 70.3493 38.9867 69.848 39.712C69.3573 40.4373 68.712 41.0187 67.912 41.456C67.1227 41.8827 66.2427 42.096 65.272 42.096C64.2267 42.096 63.272 41.856 62.408 41.376C61.544 40.8853 60.856 40.208 60.344 39.344C59.8427 38.48 59.592 37.504 59.592 36.416C59.592 35.328 59.8427 34.352 60.344 33.488C60.856 32.624 61.544 31.952 62.408 31.472C63.2827 30.9813 64.2373 30.736 65.272 30.736C66.456 30.736 67.5067 31.0293 68.424 31.616C69.352 32.192 70.024 33.0133 70.44 34.08H68.248ZM76.399 42.144C75.567 42.144 74.815 41.9573 74.143 41.584C73.471 41.2 72.943 40.6667 72.559 39.984C72.175 39.2907 71.983 38.4907 71.983 37.584C71.983 36.688 72.1803 35.8933 72.575 35.2C72.9697 34.5067 73.5083 33.9733 74.191 33.6C74.8737 33.2267 75.6363 33.04 76.479 33.04C77.3217 33.04 78.0843 33.2267 78.767 33.6C79.4497 33.9733 79.9883 34.5067 80.383 35.2C80.7777 35.8933 80.975 36.688 80.975 37.584C80.975 38.48 80.7723 39.2747 80.367 39.968C79.9617 40.6613 79.407 41.2 78.703 41.584C78.0097 41.9573 77.2417 42.144 76.399 42.144ZM76.399 40.56C76.8683 40.56 77.3057 40.448 77.711 40.224C78.127 40 78.463 39.664 78.719 39.216C78.975 38.768 79.103 38.224 79.103 37.584C79.103 36.944 78.9803 36.4053 78.735 35.968C78.4897 35.52 78.1643 35.184 77.759 34.96C77.3537 34.736 76.9163 34.624 76.447 34.624C75.9777 34.624 75.5403 34.736 75.135 34.96C74.7403 35.184 74.4257 35.52 74.191 35.968C73.9563 36.4053 73.839 36.944 73.839 37.584C73.839 38.5333 74.079 39.2693 74.559 39.792C75.0497 40.304 75.663 40.56 76.399 40.56ZM86.6021 42.144C85.7701 42.144 85.0181 41.9573 84.3461 41.584C83.6741 41.2 83.1461 40.6667 82.7621 39.984C82.3781 39.2907 82.1861 38.4907 82.1861 37.584C82.1861 36.688 82.3835 35.8933 82.7781 35.2C83.1728 34.5067 83.7115 33.9733 84.3941 33.6C85.0768 33.2267 85.8395 33.04 86.6821 33.04C87.5248 33.04 88.2875 33.2267 88.9701 33.6C89.6528 33.9733 90.1915 34.5067 90.5861 35.2C90.9808 35.8933 91.1781 36.688 91.1781 37.584C91.1781 38.48 90.9755 39.2747 90.5701 39.968C90.1648 40.6613 89.6101 41.2 88.9061 41.584C88.2128 41.9573 87.4448 42.144 86.6021 42.144ZM86.6021 40.56C87.0715 40.56 87.5088 40.448 87.9141 40.224C88.3301 40 88.6661 39.664 88.9221 39.216C89.1781 38.768 89.3061 38.224 89.3061 37.584C89.3061 36.944 89.1835 36.4053 88.9381 35.968C88.6928 35.52 88.3675 35.184 87.9621 34.96C87.5568 34.736 87.1195 34.624 86.6501 34.624C86.1808 34.624 85.7435 34.736 85.3381 34.96C84.9435 35.184 84.6288 35.52 84.3941 35.968C84.1595 36.4053 84.0421 36.944 84.0421 37.584C84.0421 38.5333 84.2821 39.2693 84.7621 39.792C85.2528 40.304 85.8661 40.56 86.6021 40.56ZM96.5333 33.04C97.2159 33.04 97.8186 33.1787 98.3413 33.456C98.8746 33.7227 99.2906 34.0587 99.5893 34.464V33.184H101.429V42.144C101.429 42.9547 101.259 43.6747 100.917 44.304C100.576 44.944 100.08 45.4453 99.4293 45.808C98.7893 46.1707 98.0213 46.352 97.1253 46.352C95.9306 46.352 94.9386 46.0693 94.1493 45.504C93.3599 44.9493 92.9119 44.192 92.8053 43.232H94.6133C94.7519 43.6907 95.0453 44.0587 95.4933 44.336C95.9519 44.624 96.4959 44.768 97.1253 44.768C97.8613 44.768 98.4533 44.544 98.9013 44.096C99.3599 43.648 99.5893 42.9973 99.5893 42.144V40.672C99.2799 41.088 98.8586 41.44 98.3253 41.728C97.8026 42.0053 97.2053 42.144 96.5333 42.144C95.7653 42.144 95.0613 41.952 94.4213 41.568C93.7919 41.1733 93.2906 40.6293 92.9173 39.936C92.5546 39.232 92.3733 38.4373 92.3733 37.552C92.3733 36.6667 92.5546 35.8827 92.9173 35.2C93.2906 34.5173 93.7919 33.9893 94.4213 33.616C95.0613 33.232 95.7653 33.04 96.5333 33.04ZM99.5893 37.584C99.5893 36.976 99.4613 36.448 99.2053 36C98.9599 35.552 98.6346 35.2107 98.2293 34.976C97.8239 34.7413 97.3866 34.624 96.9173 34.624C96.4479 34.624 96.0106 34.7413 95.6053 34.976C95.1999 35.2 94.8693 35.536 94.6133 35.984C94.3679 36.4213 94.2453 36.944 94.2453 37.552C94.2453 38.16 94.3679 38.6933 94.6133 39.152C94.8693 39.6107 95.1999 39.9627 95.6053 40.208C96.0213 40.4427 96.4586 40.56 96.9173 40.56C97.3866 40.56 97.8239 40.4427 98.2293 40.208C98.6346 39.9733 98.9599 39.632 99.2053 39.184C99.4613 38.7253 99.5893 38.192 99.5893 37.584ZM105.649 30.16V42H103.825V30.16H105.649ZM116.124 37.376C116.124 37.7067 116.102 38.0053 116.06 38.272H109.324C109.377 38.976 109.638 39.5413 110.108 39.968C110.577 40.3947 111.153 40.608 111.836 40.608C112.817 40.608 113.51 40.1973 113.916 39.376H115.884C115.617 40.1867 115.132 40.8533 114.428 41.376C113.734 41.888 112.87 42.144 111.836 42.144C110.993 42.144 110.236 41.9573 109.564 41.584C108.902 41.2 108.38 40.6667 107.996 39.984C107.622 39.2907 107.436 38.4907 107.436 37.584C107.436 36.6773 107.617 35.8827 107.98 35.2C108.353 34.5067 108.87 33.9733 109.532 33.6C110.204 33.2267 110.972 33.04 111.836 33.04C112.668 33.04 113.409 33.2213 114.06 33.584C114.71 33.9467 115.217 34.4587 115.58 35.12C115.942 35.7707 116.124 36.5227 116.124 37.376ZM114.22 36.8C114.209 36.128 113.969 35.5893 113.5 35.184C113.03 34.7787 112.449 34.576 111.756 34.576C111.126 34.576 110.588 34.7787 110.14 35.184C109.692 35.5787 109.425 36.1173 109.34 36.8H114.22ZM129.851 34.192C129.851 34.7573 129.718 35.2907 129.451 35.792C129.184 36.2933 128.758 36.704 128.171 37.024C127.584 37.3333 126.832 37.488 125.915 37.488H123.899V42H122.075V30.88H125.915C126.768 30.88 127.488 31.0293 128.075 31.328C128.672 31.616 129.115 32.0107 129.403 32.512C129.702 33.0133 129.851 33.5733 129.851 34.192ZM125.915 36C126.608 36 127.126 35.8453 127.467 35.536C127.808 35.216 127.979 34.768 127.979 34.192C127.979 32.976 127.291 32.368 125.915 32.368H123.899V36H125.915ZM133.415 30.16V42H131.591V30.16H133.415ZM135.201 37.552C135.201 36.6667 135.383 35.8827 135.745 35.2C136.119 34.5173 136.62 33.9893 137.249 33.616C137.889 33.232 138.593 33.04 139.361 33.04C140.055 33.04 140.657 33.1787 141.169 33.456C141.692 33.7227 142.108 34.0587 142.417 34.464V33.184H144.257V42H142.417V40.688C142.108 41.104 141.687 41.4507 141.153 41.728C140.62 42.0053 140.012 42.144 139.329 42.144C138.572 42.144 137.879 41.952 137.249 41.568C136.62 41.1733 136.119 40.6293 135.745 39.936C135.383 39.232 135.201 38.4373 135.201 37.552ZM142.417 37.584C142.417 36.976 142.289 36.448 142.033 36C141.788 35.552 141.463 35.2107 141.057 34.976C140.652 34.7413 140.215 34.624 139.745 34.624C139.276 34.624 138.839 34.7413 138.433 34.976C138.028 35.2 137.697 35.536 137.441 35.984C137.196 36.4213 137.073 36.944 137.073 37.552C137.073 38.16 137.196 38.6933 137.441 39.152C137.697 39.6107 138.028 39.9627 138.433 40.208C138.849 40.4427 139.287 40.56 139.745 40.56C140.215 40.56 140.652 40.4427 141.057 40.208C141.463 39.9733 141.788 39.632 142.033 39.184C142.289 38.7253 142.417 38.192 142.417 37.584ZM154.589 33.184L149.181 46.144H147.293L149.085 41.856L145.613 33.184H147.645L150.125 39.904L152.701 33.184H154.589Z" fill="#2F2D2D"/>
<path d="M22 2C16.1652 2 10.5695 4.31785 6.44365 8.44365C2.31785 12.5695 0 18.1652 0 24C0 29.8348 2.31785 35.4305 6.44365 39.5563C10.5695 43.6821 16.1652 46 22 46C27.8348 46 33.4305 43.6821 37.5563 39.5563C41.6821 35.4305 44 29.8348 44 24C44 18.1652 41.6821 12.5695 37.5563 8.44365C33.4305 4.31785 27.8348 2 22 2Z" fill="#FCE0A2"/>
<path d="M13.2866 38.4253C12.5308 38.4253 11.7139 37.8236 11.7139 36.852V11.1578C11.7139 10.1862 12.5302 9.58447 13.2866 9.58447C13.5518 9.58447 13.808 9.65166 14.0477 9.78545L37.1548 22.6323C37.6602 22.9141 37.9617 23.4272 37.9617 24.0058C37.9617 24.5843 37.6596 25.0969 37.1548 25.3775L14.0477 38.2249C13.808 38.3575 13.5518 38.4253 13.2866 38.4253Z" fill="#28B3EA"/>
<path d="M12.3613 9.80428L13.7295 9.70142L30.9549 19.2096L26.2939 23.8349L12.3613 9.80428Z" fill="#52E895"/>
<path d="M37.7946 23.0636L30.955 19.2095L26.2939 23.8348L31.0055 28.6142L37.5413 25.1197L37.7946 23.0636Z" fill="#F9E65C"/>
<path d="M12.1587 37.9685L26.294 23.835L31.0056 28.6143L13.3746 38.4305L12.1587 37.9685Z" fill="#F15B6C"/>
<path d="M13.2863 10.0011C13.4801 10.0011 13.668 10.0511 13.8446 10.1498L36.9517 22.9966C37.3234 23.2029 37.5451 23.5799 37.5451 24.005C37.5451 24.4302 37.3234 24.8077 36.9517 25.0141L13.8446 37.8609C13.6674 37.9596 13.4795 38.0095 13.2863 38.0095C12.7303 38.0095 12.1298 37.5671 12.1298 36.8524V11.1576C12.1298 10.4435 12.7303 10.0011 13.2863 10.0011ZM13.2863 9.1687C12.2475 9.1687 11.2974 10.0005 11.2974 11.1582V36.8524C11.2974 38.0095 12.2475 38.8419 13.2863 38.8419C13.6074 38.8419 13.9368 38.7623 14.2489 38.5886L37.3561 25.7418C38.7177 24.9849 38.7177 23.0263 37.3561 22.2694L14.2489 9.4214C13.9368 9.24778 13.6074 9.1687 13.2863 9.1687Z" fill="#472B29"/>
<path d="M31.1702 28.8918C31.1321 28.8918 31.0935 28.8776 31.0643 28.8478L21.1453 18.8664C21.0876 18.8081 21.0876 18.7142 21.1465 18.6559C21.2042 18.5982 21.2993 18.5982 21.357 18.6571L31.276 28.6385C31.3337 28.6968 31.3337 28.7908 31.2748 28.849C31.2463 28.877 31.2076 28.8918 31.1702 28.8918ZM20.0673 17.7206C20.0292 17.7206 19.9906 17.7063 19.9615 17.6766L17.9012 15.6032C17.8435 15.545 17.8435 15.451 17.9024 15.3928C17.9601 15.3351 18.0552 15.3351 18.1129 15.3939L20.1731 17.4673C20.2308 17.5256 20.2308 17.6195 20.1719 17.6778C20.1434 17.7063 20.1053 17.7206 20.0673 17.7206ZM17.1871 14.8219C17.149 14.8219 17.1104 14.8077 17.0812 14.7779L12.4452 10.1139C12.3875 10.0557 12.3875 9.96173 12.4464 9.90346C12.5035 9.84578 12.5986 9.84579 12.6569 9.90465L17.2929 14.5687C17.3506 14.6269 17.3506 14.7209 17.2917 14.7791C17.2632 14.8077 17.2251 14.8219 17.1871 14.8219ZM12.3613 37.8345C12.3233 37.8345 12.2852 37.8203 12.2561 37.7911C12.1978 37.7323 12.1978 37.6383 12.2561 37.5807L17.3952 32.463C17.4535 32.4047 17.5474 32.4047 17.6057 32.463C17.6639 32.5218 17.6639 32.6158 17.6057 32.6735L12.4666 37.7911C12.4375 37.8197 12.3994 37.8345 12.3613 37.8345Z" fill="#472B29"/>
<path d="M18.728 31.4939C18.69 31.4939 18.6519 31.4796 18.6228 31.4505C18.5645 31.3916 18.5645 31.2977 18.6228 31.24L30.9892 18.9236C31.048 18.8653 31.142 18.8653 31.1997 18.9236C31.2579 18.9825 31.2579 19.0764 31.1997 19.1341L18.8333 31.4505C18.8042 31.4796 18.7661 31.4939 18.728 31.4939Z" fill="#472B29"/>
</svg>
